<svg id="a" xmlns="http://www.w3.org/2000/svg" width="80" height="60"><defs><style>.r{fill:#fa6a35}.t{fill:#fffd78}.v{fill:#ffb841}</style></defs><path id="b" class="t" d="M20.064 31.437c.388-.136.496-.583.84-.766.127-.05.256.194.382.004.289.182.464.106.62-.195.123-.309.355-.56.652-.709.402.555-.165.647-.467.903.233.116.46-.228.633.088.055.1.134-.07.177-.159a.334.334 0 0 1 .502-.181.072.072 0 0 0 .007.091c.022-.054.07-.093.084-.15.194-.025.35-.073.561.096.248.198.584.084.853-.092.115-.074.234-.198.275.067.079.042.16.078.245.107a.878.878 0 0 0 .386.053c.165-.08.053-.293.18-.385.225-.117.212.38.462.18l.01.005c.058-.077.107-.092.139.021.11.08.298-.259.39.125.059.247.348.253.506-.007.167-.274.317-.559.494-.873.166.257-.01.565.219.817.255-.354.211-.794.397-1.142a.402.402 0 0 1 .38.134c-.078.244-.177.48-.296.706a.657.657 0 0 0-.01.804c.19.337.215.2.344.015.295-.42.47-.42.797.006.272-.305.383-.72.684-.995a.85.85 0 0 1 .48.088.433.433 0 0 1-.215.517.778.778 0 0 0-.472.504c.322.142.68.182 1.027.116.08-.023.235-.017.223.136-.034.453.038.94-.351 1.29-.023.05-.06.1.005.147a.438.438 0 0 0 .048-.076.515.515 0 0 1 .495.151c.004.13-.011.26-.045.386a1.04 1.04 0 0 1-.056.193c-.13.17-.091.458-.363.53a5.15 5.15 0 0 0-1.238.97.36.36 0 0 1-.47.197c-.342-.116-.653.228-1 .05-.272-.024-.501.28-.798.09-.667-.01-1.336-.03-2.003-.026-.18 0-.379-.05-.545.07h.007a15.866 15.866 0 0 0-2.51-.015 3.903 3.903 0 0 1-2.093-.288c-.221-.128-.357.161-.555.063-.106-.364-.282-.747.35-.784.22-.013.116-.217.084-.33-.12-.434-.26-.86-.401-1.324l.948-.029c-.372-.376-.698-.704-1.025-1.036-.094-.074-.066-.124.026-.164"/><path id="c" class="t" d="M29.673 26.148c-.395.192-.84.26-1.273.194-.235.005-.443.197-.7.057-1.261-.146-2.51-.032-3.767-.105-.674.05-1.35.02-2.018-.087-.265-.073-.504-.255-.787-.268-.073.023-.151.16-.22-.017-.154-.291-.235-.543.218-.556.22-.005.216-.13.15-.318-.138-.385-.254-.777-.386-1.192l.844.004-1.305-1.295c.001-.05.024-.063.07-.046.707.027.885-.104 1.013-.746.05-.064.092-.078.12.024.08.117.183.215.303.29.196.17.323.18.438-.08.128-.306.35-.563.633-.736.25.495-.075.674-.522.842.41.07.83-.022 1.173-.255.037.092.078.137.135.024.076-.056.189-.098.25-.044.442.384.857.1 1.277.045.08-.012.136-.135.205-.208l.052.035c.09.186.008.452.274.559.443.044.075-.333.203-.455.146.036.277.428.443.054.042.247.39-.133.43.265.02.201.308.232.435-.009s.252-.499.39-.775c.178.243.037.5.216.737.214-.304.194-.689.327-1.005a.654.654 0 0 1 .388.074 5.25 5.25 0 0 1-.345.772c-.182.28.035.523.117.734.075.194.192-.019.261-.123.223-.338.485-.314.688.083l.577-.896a.166.166 0 0 1 .136.083c.034.082.11.072.173.095a.265.265 0 0 1 .111.202c-.168.222-.5.273-.59.614.296.056.569.238.884.124.066-.025.242-.043.231.135-.02.374.106.79-.218 1.077-.063.075-.209.112-.101.264.147.102.088-.075.138-.102a.138.138 0 0 1 .153-.045l.236.15a.896.896 0 0 1-.376.994c-.405.216-.77.497-1.084.832"/><path id="d" class="v" d="M2.854 31.189s.816-.705 1.114-1.02c.186-.195.344-.305.444.075.082.315.271.148.498-.004a1.842 1.842 0 0 0-.09.381c0 .097-.102.227.054.294.183.077.295.057.393-.09.07-.105.18-.181.185-.334.006-.17.166-.138.272-.138a.17.17 0 0 1 .188.2c-.018.082.068.247-.16.234a.15.15 0 0 0-.11.26c.12.1.06.252.163.336.233-.188.235-.193.243-.684.16-.028.357.154.492-.07.025-.041.071-.03.088.01.014.05.024.1.028.151.045.119.382.058.202.275a.513.513 0 0 1 .143-.225c.177-.054.31-.024.307.188.207-.01.078-.326.335-.275.106.022.05-.11.028-.17-.044-.118-.142-.253.018-.34s.17.111.254.172.111.262.274.103c.02-.126-.138-.179-.123-.302.2-.032.277.107.341.253.073.167.136.338.204.507.046.113.107.228.252.194.18-.042.085-.181.082-.288-.003-.141 0-.283 0-.455.238.06.446.202.588.402.104.129.384.066.574-.006a.86.86 0 0 1 .48-.11c.023.252-.163.33-.345.394-.225.076-.333.156-.065.324.053.035.043.116.034.18s-.081.194-.022.207c.19.04.226-.161.309-.268.06-.078-.084-.023-.101-.077a.253.253 0 0 1-.007-.4c.116-.103.213-.319.434-.175.361-.16.552.07.706.332.099.167.148.364.238.54.054.107.086.28.268.22.14-.05.24-.176.254-.324.02-.131.045-.257-.152-.295-.279-.054-.283-.263-.237-.55.198.352.405.307.636.094a.288.288 0 0 1 .364-.013c.133.075.136.168.094.295a.536.536 0 0 0 .037.346c.025.071.01.172.11.188s.1-.133.148-.149c.42-.139.299-.687.684-.877.052.1.098.204.139.31.077.236.141.411.391.11.12-.147.31-.066.47.012.205.1.409.235.456-.178.029-.234.316-.247.506-.31a5.96 5.96 0 0 1 1.09-.118c.152-.023.353.044.399-.239.019-.119.249-.183.414-.118.194.079-.004.159-.01.238-.006.065-.016.15.052.17.046.014.119-.03.165-.067.257-.202.509-.412.767-.614.142-.111.239-.39.493-.1.082.093-.032-.21.149-.139l.199.341c.116.062.243.104.373.123.264-.105.291.119.371.32a.324.324 0 0 1 .488-.322c.4.159.57-.21.845-.318.164-.063.247-.287.478-.091a.302.302 0 0 0 .366-.27c.003-.117.02-.231.032-.348.11-.183.247-.224.418-.078.238.063.47.144.696.243.253.115.585.056.882.078.268.02.543-.042.793.147.132.1.29-.041.433-.068s.215-.195.347.058c.093.177.152-.262.34-.125.03.004.06.005.09.002a.641.641 0 0 0 .24-.133.207.207 0 0 1 .142-.027c.105-.1.218-.062.343-.046.078.01.238.14.257-.08.098-.103.235-.077.356-.108.209.032.422.005.616-.076a.721.721 0 0 1 .863.142c.222.233.534.357.855.341.814.038 1.48.662 1.57 1.472.108.485-.06.94.048 1.428.073.342-.186.753-.315 1.127-.11.417-.3.81-.558 1.155l-.063.047c-.302.204-.633-.071-.934.054-.206.085-.473.143-.319.474.052.032.093.07.063.138-.405.195-.866-.098-1.27.143-.015.011-.095-.042-.11-.08-.029-.069.06-.062.084-.094.125-.16.568-.136.294-.54-.062-.09.12-.127.227-.12.14-.066.264.212.408.02.155-.204-.023-.386-.054-.576.257-.31.585-.55.956-.705.184.128.087.27.019.41a.175.175 0 0 0 .048.243.185.185 0 0 0 .22.028c.08-.05.081-.133.063-.208a.7.7 0 0 1 .177-.679c.173-.19.006-.357-.151-.488-.106-.1-.266-.105-.38-.192a.152.152 0 0 1-.03-.103c.046-.149.116-.289.153-.442.094-.398.058-.45-.351-.458a.816.816 0 0 1-.257-.08c-.303-.105-.33-.204-.1-.43.144-.143.356-.235.347-.486-.01-.067.056-.183-.037-.19s-.138.125-.2.2c-.102.137-.18.288-.275.43-.129.19-.217.462-.52.187-.077-.07-.174-.01-.241.062-.104.113-.224.303-.377.154s-.331-.357-.18-.624c.13-.228.207-.48.332-.709.054-.13.162-.226.216-.364-.208.025-.26.192-.335.336a3.36 3.36 0 0 0-.17.52c-.035.137-.058.33-.222.33-.213 0-.172-.217-.212-.358a.629.629 0 0 0-.111.197c-.254.456-.331.472-.77.194-.032-.02-.076-.017-.111-.029s-.056-.116-.132-.048a.144.144 0 0 1-.09.022c-.135-.048-.227-.17-.368-.207-.113-.07-.091-.202-.142-.305-.077.076-.076.183-.122.27a.345.345 0 0 1-.216.228c-.06-.007-.12-.041-.184.005a.733.733 0 0 1-.845.069.407.407 0 0 0-.27-.02.932.932 0 0 1-.107.015c-.064.009-.159-.005-.182.05-.155.351-.468.1-.69.19-.053.02-.097-.03-.103-.087a.203.203 0 0 1 .097-.2c.125-.085.27-.157.236-.386a1.696 1.696 0 0 0-.427.522c-.129.232-.279.295-.5.124-.077-.112-.265-.138-.246-.275.006.056.06.165-.029.261-.188.206-.315.481-.621.554-.11.011-.136-.113-.226-.14.04.097.118.173.215.212.207.18.408.368.607.557a.244.244 0 0 1 .103.24c-.033.109-.148.11-.233.1-.345-.034-.372.117-.252.387.065.158.114.322.145.49.035.18.031.347-.191.401-.28.069-.137.334-.232.487.05.178.142.448.024.52a.489.489 0 0 1-.711-.115c-.04.355-.174.405-.422.221a.994.994 0 0 0-.635-.182c-.606.028-1.223-.18-1.82.08-.158.069-.239-.053-.303-.176a74.621 74.621 0 0 0-.44-.83c-.026.018-.06.03-.061.044-.037.502-.065.52-.568.395-.383-.096-.75-.37-1.164-.102-.276-.313-.492-.095-.714.078-.123-.033-.14-.183-.25-.231a1.088 1.088 0 0 0-1.311-.05c-.259.135-.632.055-.955.041-.225-.013-.441.016-.662.026-.195.01-.25.08-.18.269.028.074.151.23-.04.232-.136.001-.36.118-.421-.13-.028-.106.026-.239-.136-.271s-.231.08-.297.197c-.036.073-.066.049-.095-.007-.008-.183-.097-.16-.196-.07-.084.075-.088.227-.228.244-.177-.082.159-.206-.018-.266s-.166.102-.173.217c-.014.182-.151.117-.237.104-.388-.06-.775-.132-1.163-.2a2.99 2.99 0 0 0-.85-.132c-.45.063-.698-.291-1.052-.42a.262.262 0 0 1-.152-.337l.013-.029c.179-.255-.006-.373-.192-.608.072.384-.284.676.034.982.008.01.013.022.014.035-.328.26-.287.718-.54 1.01-.138.158-.33.05-.469-.04a1.396 1.396 0 0 0-1.14-.21 1.332 1.332 0 0 1-1.063-.583c-.224.118-.245.49-.564.474a.487.487 0 0 1-.47-.273c-.173.666-.665.265-1.017.356-.076.02-.1-.069-.11-.135-.064-.431-.25-.28-.463-.106-.334.268-.676-.146-.676-.146l2.016-.923s.404-.75.197-.994"/><path id="e" class="v" d="M7.461 22.898c-.096.366.138.333.543.152a.564.564 0 0 1 .487-.018c.112.066.056.146-.062.258-.16.152-.152.295-.23.474.319-.142.589-.283.865-.41a3.8 3.8 0 0 1 .875-.474c-.11.138-.076.243-.108.36-.038.142.064.168.284.054a.649.649 0 0 1 .676-.032.448.448 0 0 0 .616-.135.95.95 0 0 1 .47-.182 7.092 7.092 0 0 1 1.36-.123c.274-.014.56.096.906-.205a.712.712 0 0 1 .51-.072c.21.071-.105.137-.147.205-.025.04-.06.088-.046.114.03.057.136.006.21-.022.483-.18.965-.363 1.445-.548.152-.05.311-.076.471-.076.402-.038.183.232.411.254a.458.458 0 0 0 .23.004.4.4 0 0 1 .247.05c.264.003-.104.206.079.263a.577.577 0 0 1 .662-.233c.383.14.815-.134 1.217-.234.242-.062.482-.236.595-.047a.883.883 0 0 0 .589-.219 1.62 1.62 0 0 1 .221-.24c.08-.068.282-.163.31-.13.13.155.577.027.698.137.244.213.77.11 1.142.181.295.054.715-.018.926.133.13.036.27.03.396-.017.424-.158.624-.021.915-.007.06.01.123.01.183-.004a2.256 2.256 0 0 1 1.196-.207l.057-.054a.516.516 0 0 1 .24-.073c.122-.01.19.036.297.041.202.066.42.066.621.002.465-.108.768-.092.947.13.117.143.143.448.778.22.057-.02.16.023.214.056.255.151.687.178.884.367l.018.05c-.077.128.04.198.047.301a1.277 1.277 0 0 1-.47.907c-.158.153-.323.287-.289.431.016.07-.052.135-.17.196-.149.08-.37.145-.293.269-.462.361-.895.73-1.37 1.09-.43.361-.988.534-1.547.479a.89.89 0 0 0-.82.288.711.711 0 0 1-.572.236 8.053 8.053 0 0 0-1.054.008c-.112.009-.216-.013-.205-.09.015-.092.16-.124.273-.163a.98.98 0 0 0 .572-.33.396.396 0 0 1 .422-.128c.112.027.083.186.333.08a.409.409 0 0 0 .305-.37.244.244 0 0 1 .13-.175 8.23 8.23 0 0 1 1.442-.452c.082.102-.09.205-.213.31-.142.12-.14.213.042.222a.317.317 0 0 0 .322-.196c.12-.231.321-.41.565-.5.314-.144.184-.275.094-.383a1.514 1.514 0 0 0-.168-.126c-.045-.035-.09-.071-.048-.136.116-.122.297-.227.411-.351.257-.283.245-.325-.191-.327-.166 0-.23-.072-.375-.088-.237-.022-.11-.124.043-.22.22-.113.447-.207.681-.284a.543.543 0 0 0 .234-.172c.042-.066.11-.135.117-.219a1.951 1.951 0 0 0-.42.207c-.216.13-.432.259-.654.382s-.436.282-.585.089c-.08-.104-.308.018-.49.096-.37.155-.453.128-.435-.082.019-.23.288-.416.577-.61.163-.11.317-.222.492-.326.128-.072.25-.152.368-.241a1.073 1.073 0 0 0-.589.257c-.2.152-.37.31-.565.464a.635.635 0 0 1-.39.196c-.172-.004-.08-.124-.044-.214.012-.028.046-.06.016-.081-.12.067-.22.142-.33.213-.47.298-.59.323-.838.11-.136-.115-.54.06-.61-.098-.065.03-.027.056-.057.085a.404.404 0 0 1-.418.14.086.086 0 0 1-.024-.068.987.987 0 0 1 .21-.27c.08-.085.147-.18.2-.283-.129.06-.249.137-.355.23a2.536 2.536 0 0 1-1.457.24 1.03 1.03 0 0 0-.423-.08 3.65 3.65 0 0 0-.2.019c-.328.075-.683.29-.982.188-.068-.023-.255.04-.212-.067a.418.418 0 0 1 .275-.173.865.865 0 0 0 .462-.265c-.22.073-.432.17-.632.288-.626.342-.744.343-.946-.006a.572.572 0 0 1 .182-.267.649.649 0 0 0-.183.222c-.082.158 3.515.22 3.318.332-.478.27-.665.29-.98.126-.024-.035-.114-.031-.114-.029s.059.002.096.024c.242.17.45.384.615.63.05.06.073.136-.045.22a.512.512 0 0 1-.335.064c-.343-.032-.435.083-.463.266-.016.105-.076.218-.104.326-.044.183-.133.346-.543.411a.426.426 0 0 0-.354.247.675.675 0 0 1-.151.171.667.667 0 0 1-.93.348.458.458 0 0 0-.148-.02c-.417.334-4.308.115-4.5.076a2.32 2.32 0 0 0-.555-.098 8.153 8.153 0 0 0-2.164.041c-.22.055-.231-.057-.237-.151-.011-.218-.019-.436-.028-.655a.544.544 0 0 0-.112.03c-.334.388-.423.419-.921.297a2.19 2.19 0 0 0-1.25-.12c-.245.056.024-.15-.115-.193l-.772.271c-.125-.026-.05-.144-.157-.179-.295-.278-.79-.25-1.495-.065-.39.063-.786.068-1.176.014-.24-.01-.494.007-.743.013s-.335.065-.367.209c-.013.06.046.18-.182.18-.154-.003-.419.06-.433-.082q-.034-.312-.53-.05c-.03 0-.043-.006-.036-.018a.049.049 0 0 1 .025-.023c.06-.244-.193-.048-.34 0a.88.88 0 0 1-.122.004c-.189-.028-.329.152-.504.164-.994-.054 3.84-1.447 2.842-1.504"/><path id="f" transform="rotate(-.467 67.705 28.334)" d="M66.1 23.682h3.209v9.305H66.1z" fill="#333"/><path id="g" class="r" d="M33.16 9.29c10.587-.087 11.499 8.977 24.114 11.47 1.5 1.189 2.351 1.337 2.623 1.352l-18.885.153 18.9-.153h-.017.096-.009l5.54-.044a25.3 25.3 0 0 1 10.367 1.996c2.556 1.172 4.088 2.692 4.1 4.064.011 1.371-1.499 2.917-4.034 4.13a25.3 25.3 0 0 1-10.33 2.164l-5.529.044-.096.001c-.272.017-1.12.183-2.6 1.394-12.577 2.698-13.341 11.775-23.927 11.863l-.091-10.98-1.371.01.089 10.982c-2.275.019-4.138-2.425-4.163-5.458l-.044-5.49c-1.99.016-2.752-.839-2.762-2.038l-.027-3.435c-.01-1.2.743-2.067 2.729-2.081l-.011-1.373c-1.99.017-2.752-.838-2.762-2.037l-.027-3.429c-.01-1.2.743-2.067 2.73-2.082l-.049-5.488c-.025-3.032 1.8-5.505 4.074-5.524l.09 10.982 1.371-.012-.088-10.982zm33.078 16.205l.045 5.49a.686.686 0 0 0 .692.68c2.738-.022 2.683-6.888-.056-6.863a.686.686 0 0 0-.681.69v.003m-26.666-4.586l.003.004"/><path id="h" class="r" d="M27.89 36.789c-1.987.015-2.75-.84-2.76-2.039l-.025-3.43c-.01-1.2.742-2.066 2.729-2.08l.015 2.057.042 5.492z"/><path id="i" class="r" d="M27.818 27.867c-1.987.014-2.75-.84-2.76-2.039l-.026-3.43c-.01-1.2.743-2.066 2.73-2.081l.014 2.058.042 5.492z"/><path id="j" d="M32.1 47.736l1.372-.011-.105-13.043 32.944-.267-.074-8.92a.687.687 0 0 1 .68-.693c2.741-.025 2.795 6.84.059 6.863a.686.686 0 0 1-.693-.68v-.001l.028 3.415a24.965 24.965 0 0 0 9.644-2.141c2.535-1.213 4.044-2.759 4.033-4.13-.01-1.372-1.543-2.892-4.099-4.064a24.97 24.97 0 0 0-9.677-1.984v-.016l-32.944.27-.108-13.046-1.372.012s-4.118.034-4.074 5.525l.226 27.452c.044 5.49 4.163 5.458 4.163 5.458" fill="#ffca34"/><path id="k" d="M37.926 37.803a2.629 2.629 0 1 1-2.608 2.65v-.001a2.629 2.629 0 0 1 2.608-2.649" fill="#fff"/><path id="l" class="r" d="M77.23 31.567l-.054-6.833c1.773 1.046 2.803 2.27 2.812 3.393.009 1.123-1 2.362-2.758 3.44"/><g id="m" transform="translate(0 1.817)" opacity=".1"><g id="n"><g id="o"><path id="p" d="M27.848 28.592l-.008-.702c-1.494.013-2.294-.466-2.606-1.21a1.82 1.82 0 0 1-.068-.193 2.313 2.313 0 0 1-.088-.634l-.014-1.715-.014-1.716c-.011-.351.067-.7.228-1.012a1.75 1.75 0 0 1 .763-.718c.151-.077.31-.14.473-.186a4.675 4.675 0 0 1 1.267-.163l-.001-.04-.002-.21-.008-1.12-.003-.47-.001-.375-.011-1.348v-.07l-.016-1.86c0-.106.001-.212.005-.317.068-3.055 1.473-4.318 2.615-4.837a3.217 3.217 0 0 1 1.454-.367l1.372-.01v.095-.094c10.583-.09 11.494 8.976 24.11 11.469 1.5 1.187 2.351 1.336 2.623 1.351h.095-.008l5.539-.044h.088l.6-.006v.008c2.35.032 4.685.368 6.949.999l.065.02c.166.048.333.095.493.148.057.018.113.035.17.056.128.042.257.082.385.128.094.032.184.066.277.1s.18.062.27.096c.142.053.281.11.42.167.038.015.079.032.12.044a14.294 14.294 0 0 1 1.821.903l.011.008c.049.028.094.058.141.087.072.049.144.091.215.137l.151.1c.065.043.128.086.19.13.048.034.095.066.142.103.062.045.121.091.184.135l.123.098c.078.063.153.126.225.193a.627.627 0 0 1 .095.084c.074.06.143.124.208.189.031.03.06.063.091.093a4.116 4.116 0 0 1 .354.399c.025.031.052.062.074.093l.125.177.05.068c.05.08.098.161.14.24.014.02.02.045.032.067.025.06.054.119.078.179l.033.087c.02.053.039.106.055.16l.024.088c.015.056.025.11.035.166l.014.077c.004.026.004.072.008.109l-52.152.566z"/></g></g></g></svg>