<svg xmlns="http://www.w3.org/2000/svg" width="80" height="60"><defs><linearGradient id="a" x1="-192.348" y1="-1038.177" x2="-191.638" y2="-1038.177" gradientTransform="matrix(84.915 0 0 -64.841 16343.085 -67286.443)" gradientUnits="userSpaceOnUse"><stop offset="0" stop-color="#005da3"/><stop offset="1" stop-color="#00c3ed"/></linearGradient></defs><circle cx="39.988" cy="30" r="30" fill="#d2dbde"/><path d="M13.339 6.99H66.66a3.472 3.472 0 0 1 3.471 3.472v39.075a3.472 3.472 0 0 1-3.47 3.472H13.338a3.472 3.472 0 0 1-3.471-3.472V10.462a3.472 3.472 0 0 1 3.47-3.471z" fill="url(#a)"/><path d="M32.622 15.657c-7.911-.002-14.326 6.408-14.328 14.319-.002 7.91 6.409 14.325 14.32 14.327 7.91.003 14.324-6.408 14.327-14.319v-.02c-.003-7.904-6.413-14.31-14.317-14.307h-.002zm-12.87 14.319a12.875 12.875 0 0 1 1.108-5.243l6.134 16.813a12.865 12.865 0 0 1-7.244-11.568l.001-.002zm12.87 12.873a13.282 13.282 0 0 1-3.64-.519l3.857-11.22 3.953 10.835c.027.063.06.123.096.181a13.217 13.217 0 0 1-4.266.723zm1.774-18.911c.771-.036 1.47-.12 1.47-.12a.532.532 0 0 0-.084-1.062s-2.085.169-3.435.169c-1.266 0-3.387-.169-3.387-.169a.532.532 0 0 0-.084 1.061s.65.085 1.348.12l2 5.497-2.82 8.449-4.688-13.945c.772-.036 1.47-.12 1.47-.12a.532.532 0 0 0-.084-1.062s-2.085.169-3.435.169c-.241 0-.53-.012-.832-.012 3.902-5.94 11.88-7.59 17.818-3.69.575.379 1.12.802 1.627 1.267-.06 0-.109-.012-.169-.012a2.22 2.22 0 0 0-2.157 2.278c0 1.061.614 1.952 1.265 3.013a6.71 6.71 0 0 1 1.061 3.544 15.655 15.655 0 0 1-.979 4.157l-1.292 4.292-4.613-13.825zm9.51-.133c3.341 6.12 1.204 13.787-4.821 17.296l3.929-11.366c.624-1.456.955-3.02.976-4.604a8.08 8.08 0 0 0-.084-1.326zm15.596-8.148c.145 0 .285.05.397.142.107.094.169.23.169.373-.009.17-.057.335-.142.482-.4.867-.906 1.68-1.507 2.423a1.006 1.006 0 0 1-.699.29.931.931 0 0 1-.699-.302.973.973 0 0 1-.29-.71.87.87 0 0 1 .302-.687l2.058-1.868a.676.676 0 0 1 .41-.143zm-2.941 3.335c.088.162.207.305.35.422.141.113.306.196.481.241v.23a1.46 1.46 0 0 1-.421 1.12c-.298.293-.704.45-1.12.434a1.61 1.61 0 0 1-.7-.142 1.277 1.277 0 0 1-.497-.41 1.898 1.898 0 0 1-.277-.59 2.668 2.668 0 0 1-.097-.71 1.3 1.3 0 0 0 .133.097c.071.048.142.096.205.142.06.047.125.087.193.12a.511.511 0 0 0 .142.06.18.18 0 0 0 .181-.12c.046-.127.106-.249.181-.361a1.1 1.1 0 0 1 .23-.242 1.26 1.26 0 0 1 .289-.156c.11-.036.223-.064.338-.085a1.64 1.64 0 0 1 .389-.05zm3.386 9.559c.16.158.161.416.003.576l-.003.002-1.29 1.29.483.482-.518.518a2.021 2.021 0 0 1-1.254.602 1.976 1.976 0 0 1-1.325-.326l-1.17 1.17h-.578v-.579l1.17-1.169a1.976 1.976 0 0 1-.327-1.326c.047-.476.26-.92.603-1.253l.518-.518.482.482 1.288-1.286a.42.42 0 0 1 .29-.12.412.412 0 0 1 .409.409.355.355 0 0 1-.12.29l-1.289 1.289.76.76 1.29-1.29a.42.42 0 0 1 .289-.121.392.392 0 0 1 .29.12v-.002zm-.626 9.958H55.03a.73.73 0 0 0-.735.726v4.3a.73.73 0 0 0 .725.736h4.3a.73.73 0 0 0 .736-.726v-4.3a.73.73 0 0 0-.725-.736h-.01zm-.808 4.207c-.048.12-.627.205-1.338.205a2.438 2.438 0 0 1-1.338-.217v-.242a.81.81 0 0 1 .049-.29.473.473 0 0 1 .217-.216l.397-.193.036-.012.17-.085.048-.024v-.01a1.005 1.005 0 0 1-.374-.82.798.798 0 1 1 1.567 0c.008.319-.135.623-.385.82v.012l.253.12.41.194c.094.046.17.122.217.217a.81.81 0 0 1 .048.29v.253h.024l-.001-.002z" fill="#fff"/></svg>