<svg id="a" xmlns="http://www.w3.org/2000/svg" width="80" height="60"><defs><style>.l{fill:#acacac}</style></defs><path id="b" d="M67.856 60H12.144a5.015 5.015 0 0 1-5-5V5a5.015 5.015 0 0 1 5-5h55.712a5.015 5.015 0 0 1 5 5v50a5.015 5.015 0 0 1-5 5z" fill="#d6d6d6"/><path id="c" d="M68.57 11.43v40.58a4.36 4.36 0 0 1-4.347 4.348H15.776a4.36 4.36 0 0 1-4.348-4.348V11.43h57.143z" fill="#fff"/><circle id="d" class="l" cx="13.237" cy="6.095" r="1.809"/><circle id="e" class="l" cx="18.661" cy="6.095" r="1.809"/><circle id="f" class="l" cx="24.447" cy="6.095" r="1.809"/><path id="g" class="l" d="M45.356 4.287h21.429a1.786 1.786 0 0 1 0 3.571H45.356a1.786 1.786 0 0 1 0-3.571z"/><path id="h" d="M26.474 34.86c.534 7.888 7.36 13.849 15.248 13.314 7.887-.534 13.847-7.36 13.313-15.247-.534-7.887-7.36-13.848-15.247-13.314a14.313 14.313 0 0 0-8.254 3.333" fill="none" stroke-linecap="round" stroke-linejoin="round" stroke-width="2.564" stroke="#45b767"/><path id="i" d="M26.133 32.043l-2.446 4.24a.873.873 0 0 0 .756 1.31h4.895a.873.873 0 0 0 .756-1.31l-2.447-4.24a.873.873 0 0 0-1.512 0" fill="#45b767"/><path id="j" d="M40.771 26.764v8.616l4.484 4.483" stroke="#4d4e4e" fill="none" stroke-linecap="round" stroke-linejoin="round" stroke-width="2.564"/></svg>