<?xml version="1.0" encoding="UTF-8"?><svg id="a" xmlns="http://www.w3.org/2000/svg" width="81" height="60" xmlns:xlink="http://www.w3.org/1999/xlink" viewBox="0 0 81 60"><defs><style>.d{fill:url(#b);}</style><linearGradient id="b" x1="-492.42273" y1="-55.30833" x2="-491.68995" y2="-55.30833" gradientTransform="translate(55628.99661 -4304.34822) scale(112.97 -78.367)" gradientUnits="userSpaceOnUse"><stop offset="0" stop-color="#f26a27"/><stop offset="1" stop-color="#fccb00"/></linearGradient></defs><path id="c" class="d" d="M7.20661,41.93705c0,1.36419,1.10589,2.47008,2.47008,2.47008s2.47008-1.10589,2.47008-2.47008-1.10589-2.47008-2.47008-2.47008h0c-1.36419,0-2.47008,1.10589-2.47008,2.47008M2.47008,27.84146c-1.36419,0-2.47008,1.1059-2.47008,2.47008,0,1.36419,1.1059,2.47008,2.47008,2.47008,1.36279,0,2.4681-1.10371,2.47007-2.46649,.00198-1.36419-1.10231-2.47168-2.46649-2.47366h-.00359Zm7.09834,0c-1.36419,.00079-2.46944,1.10733-2.46865,2.47151,.00079,1.36419,1.10733,2.46944,2.47151,2.46865,1.36307-.00079,2.46786-1.10558,2.46865-2.46865,.00079-1.36419-1.10446-2.47072-2.46865-2.47151h-.00287Zm24.09135,16.26238h0Zm0,0h6.68965c.86764,2.69784,2.04163,5.28735,3.49898,7.71784-4.07567-1.52491-7.61697-4.20743-10.18863-7.71784m11.73306,0h4.83691v8.64349c-2.08708-2.5889-3.72301-5.51097-4.83907-8.64349m9.57129,0h4.83763c-1.11609,3.13221-2.75148,6.0542-4.83763,8.64349v-8.64349Zm9.77635,0h6.69109c-2.57249,3.50986-6.11423,6.19183-10.19007,7.7164,1.53694-2.38795,2.71578-4.98816,3.49898-7.71784m-9.77707-11.62981h7.10193c-.20697,2.34604-.516,4.67893-.92709,6.99868h-6.17484v-6.99868Zm11.83775,0h9.36552c-.30027,2.41719-.95953,4.77606-1.95599,6.99868h-8.23337c.42647-2.3125,.70167-4.65036,.82384-6.99868h0ZM30.77526,20.74383h8.33375c-.43269,2.31156-.70793,4.64983-.82384,6.99868h-9.36193c.23781-2.41724,.8634-4.78039,1.85274-6.99868m13.27749,0h6.17413v6.99868h-7.10336c.09916-2.35588,.40919-4.69813,.92637-6.99868h.00287Zm10.90922,0h6.17843c.43319,2.31148,.70844,4.64979,.82384,6.99868h-7.0037l.00143-6.99868Zm11.01104,0h8.23551c1.01032,2.21083,1.63685,4.57754,1.85274,6.99868h-9.26513c-.1159-2.34885-.39115-4.68712-.82384-6.99868m-4.73223-12.45795c4.0346,1.59762,7.5563,4.26672,10.18505,7.71927h-6.6875c-.82289-2.71511-1.9988-5.31039-3.49755-7.71927m-17.39381,0c-1.49961,2.40887-2.67602,5.00444-3.49898,7.71999h-6.68822c2.63068-3.45202,6.15269-6.12153,10.1872-7.72142m6.27738-.81954v8.64206h-4.73223c1.03913-3.1452,2.64274-6.07469,4.73223-8.64492m4.83691,8.54311V7.46491c2.08548,2.59027,3.7208,5.51261,4.83763,8.64492l-4.83763-.10468ZM22.23359,4.27137c.15755,1.38413,1.3909,2.38959,2.77839,2.26502h11.83488c-3.66351,2.48-6.72322,5.75118-8.95323,9.57201H6.89686c-1.38685-.12379-2.6194,.88096-2.77768,2.2643,.15827,1.38365,1.39127,2.3885,2.77839,2.2643H25.73186c-.81754,2.32625-1.33509,4.74727-1.54012,7.20446h-7.62104c-1.38688-.12342-2.6194,.88105-2.77839,2.2643,.15827,1.38365,1.39127,2.3885,2.77839,2.2643H50.1265v7.00155H16.26381c-1.38712-.1242-2.62012,.88065-2.77839,2.2643,.15827,1.38364,1.39127,2.3885,2.77839,2.2643h11.63053c2.17835,3.91828,5.28923,7.23899,9.0572,9.66809h-12.65943c-1.23549-.26881-2.45497,.51485-2.72377,1.75035-.26881,1.2355,.51485,2.45497,1.75035,2.72378,.15845,.03447,.32012,.05202,.48228,.05233h29.46028c15.31345-.24922,27.62824-12.67606,27.73876-27.99114v-.10468c-.10262-15.56173-12.80082-28.09396-28.36255-27.99186H25.01127c-.07815-.00645-.15559-.01075-.23231-.01075-1.30288,.00247-2.39725,.98062-2.54537,2.27506m-3.67035-2.36611c-1.38307,.01881-2.48902,1.15526-2.47021,2.53832,.01881,1.38307,1.15526,2.48902,2.53832,2.47021s2.48902-1.15526,2.47021-2.53832c-.01845-1.35654-1.11366-2.45176-2.47021-2.47021h-.06812Z"/></svg>