<svg xmlns="http://www.w3.org/2000/svg" xmlns:xlink="http://www.w3.org/1999/xlink" width="65.943" height="70.875" xmlns:v="https://vecta.io/nano"><path d="M9.299 24.728v13.118c0 12.114 8.635 23.026 20.653 24.538 6.747.85 13.535-1.236 18.641-5.728s8.041-10.958 8.059-17.758V23.676c-.018-6.801-2.953-13.266-8.059-17.758S36.699-.659 29.952.19C17.934 1.707 9.299 12.614 9.299 24.728zm36.425 7.165A12.84 12.84 0 0 1 27.25 43.366a12.4 12.4 0 0 1-7.024-11.377V23.6a12.39 12.39 0 0 1 7.024-11.377 12.84 12.84 0 0 1 18.474 11.473z" fill="#9f9f9f"/><rect width="65.943" height="43.18" rx="4" fill="#fdb515" y="27.695"/><rect width="48.504" height="14.698" rx="7.349" fill="#fff" x="8.72" y="41.232"/><g fill="#5c5c5c"><circle cx="17.865" cy="48.581" r="3.177"/><circle cx="27.762" cy="48.581" r="3.177"/><circle cx="37.659" cy="48.581" r="3.177"/><circle cx="47.554" cy="48.581" r="3.177"/></g><g fill="#ef9a21"><use xlink:href="#B"/><use xlink:href="#B"/><path d="M62.152 28.5a6.86 6.86 0 0 0-3.215-.8h-52.1a6.86 6.86 0 0 0-3.514.966c2.7 2.288 14.8 4.015 29.326 4.015 14.872.001 27.21-1.811 29.503-4.181z"/></g><defs ><path id="B" d="M3.321 70.076a6.86 6.86 0 0 0 3.215.8h52.1a6.86 6.86 0 0 0 3.514-.966c-2.7-2.288-14.8-4.015-29.326-4.015-14.873-.002-27.208 1.81-29.503 4.181z"/></defs></svg>