<svg xmlns="http://www.w3.org/2000/svg" xmlns:xlink="http://www.w3.org/1999/xlink" width="98.467" height="75" viewBox="0 0 98.467 75"><defs><linearGradient id="a" y1="0.534" x2="1.212" y2="0.833" gradientUnits="objectBoundingBox"><stop offset="0" stop-color="#f26a27"/><stop offset="1" stop-color="#fccb00"/></linearGradient></defs><path d="M-6337.355-2616.974a20.667,20.667,0,0,1-10.936-3.153,31.451,31.451,0,0,1-5.97-5.558,6.724,6.724,0,0,1,.523-9,5.632,5.632,0,0,1,8.354.558,19.077,19.077,0,0,0,3.317,3.147c.039.028,4.006,2.46,8,.513,6.114-2.981,5.688-9.657,5.059-11.762a9.4,9.4,0,0,0-5.444-6.241,8.49,8.49,0,0,0-7.635.539l-36.421,26.265-.18.126a22.79,22.79,0,0,1-23.168,1.437,24.375,24.375,0,0,1-13.1-18.686c-2.351-18.126,9.594-28.35,21.688-30.177,2.912-.44,3.352-1.211,5.2-5.233.482-1.052,1.026-2.245,1.686-3.482,4.4-8.283,14.225-14.294,23.371-14.294,11.531,0,20.06,5.268,26.075,16.1a6.66,6.66,0,0,1-2.046,8.744,5.691,5.691,0,0,1-8.122-2.2c-3.9-7.027-8.508-9.894-15.907-9.894a16.312,16.312,0,0,0-13.091,7.871c-.479.9-.9,1.824-1.348,2.8-2.1,4.567-4.965,10.822-14.172,12.215-3.141.473-13.261,3.013-11.605,15.783a11.72,11.72,0,0,0,6.41,8.908,11.549,11.549,0,0,0,11.822-.685l36.474-26.3c.087-.064.181-.125.274-.185a19.654,19.654,0,0,1,17.984-1.578,21.891,21.891,0,0,1,12.528,14.251c2.754,9.186-.319,21.875-11.444,27.3A18.5,18.5,0,0,1-6337.355-2616.974Z" transform="translate(6415.258 2691.974)" fill="url(#a)"/></svg>