<svg id="a" xmlns="http://www.w3.org/2000/svg" width="80" height="60" xmlns:xlink="http://www.w3.org/1999/xlink"><defs><linearGradient id="j" x1="-169.879" y1="-1012.253" x2="-169.315" y2="-1012.704" gradientTransform="matrix(18.938 0 0 -18.938 3254.034 -19155.1)" gradientUnits="userSpaceOnUse"><stop offset=".005" stop-color="#fa6a35"/><stop offset="1" stop-color="#ffca34"/></linearGradient><linearGradient id="p" x1="-108.206" y1="-1045.004" x2="-107.381" y2="-1045.292" gradientTransform="matrix(5.9388 0 0 -12.52502 697.147 -13041.991)" xlink:href="#j"/><linearGradient id="r" x1="-106.133" y1="-1044.671" x2="-105.182" y2="-1045.189" gradientTransform="matrix(5.7489 0 0 -12.55031 666.412 -13065.898)" gradientUnits="userSpaceOnUse"><stop offset="0" stop-color="#fa6a35"/><stop offset="1" stop-color="#ffca34"/></linearGradient><style>.x{fill:#007693}.z{fill:#fff}.ab{fill:#acacac}.ad{fill:#5b5b5b}</style></defs><path id="b" class="ad" d="M24.756 1.583h1.997v12.481h-1.997V1.583zm9.466 0h1.997v12.481h-2l.003-12.481z"/><path id="c" class="ab" d="M16.286 11.529h28.917a3.995 3.995 0 0 1 3.995 3.994v40.482A3.995 3.995 0 0 1 45.203 60H16.286a3.995 3.995 0 0 1-3.995-3.995v-40.48a3.994 3.994 0 0 1 3.993-3.993l.002-.003z"/><path id="d" d="M16.286 11.069h28.917a3.995 3.995 0 0 1 3.995 3.993v37.386a3.994 3.994 0 0 1-3.993 3.993H16.287a3.995 3.995 0 0 1-3.995-3.993V15.063a3.995 3.995 0 0 1 3.994-3.994z" fill="#d7d7d7"/><path id="e" class="ab" d="M34.24 42.504h.519c.62 0 1.138.28 1.138.638v.48c0 .42-.598.74-1.338.74H16.965c-.619 0-1.139-.281-1.139-.64v-.68c0-.297.42-.519.939-.519h14.858m2.617 4.654h.519c.62 0 1.138.28 1.138.638v.46c0 .42-.598.74-1.338.74H16.965c-.619 0-1.139-.281-1.139-.64v-.639c0-.296.42-.52.939-.52h14.858m2.617-9.466h.519c.62 0 1.138.28 1.138.639v.458c0 .42-.598.74-1.338.74H16.965c-.619 0-1.139-.28-1.139-.64v-.578c0-.296.42-.519.939-.519h14.858"/><path id="f" class="x" d="M32.222 34.973h30.915a3.995 3.995 0 0 1 3.994 3.995v17.034a3.995 3.995 0 0 1-3.994 3.995H32.222a3.995 3.995 0 0 1-3.994-3.995V39.027a3.995 3.995 0 0 1 3.994-3.994v-.06z"/><path id="g" d="M32.222 34.036h30.915a3.995 3.995 0 0 1 3.994 3.995v14.956a3.995 3.995 0 0 1-3.994 3.994H32.222a3.995 3.995 0 0 1-3.994-3.994V38.03a3.995 3.995 0 0 1 3.994-3.994" fill="#0091c2"/><path id="h" d="M37.215 3.082a8.268 8.268 0 0 0-3.992-.58c-.921.243-1.856.437-2.798.58-1.039 0-2.117-.54-2.995-.58a7.704 7.704 0 0 0-3.734.58.999.999 0 0 1-1-.998v-1a.978.978 0 0 1 .958-.998h13.483c.551 0 .998.447.998.998v.999a1.019 1.019 0 0 1-.918.998l-.002.001z" fill="#cdcdcd"/><path id="i" class="x" d="M40.073 42.722l7.23-1.997 1.18 4.333-7.234 1.998-1.176-4.335z"/><path id="k" d="M41.828 13.305a5.611 5.611 0 1 1 0 11.223 5.611 5.611 0 0 1 0-11.223" fill="url(#j)"/><path id="l" class="ab" d="M18.682 16.62l9.985 4.473-2.675 5.993-9.986-4.475 2.676-5.99z"/><path id="m" class="ad" d="M34.1 35.574c.02-.346.02-.693 0-1.039v-.998h-2.357a3.994 3.994 0 0 0-3.993 3.993l-.06-.018v2.396a5.492 5.492 0 0 0 6.411-4.334H34.1zm-4.394 17.494H27.71v2.497a3.995 3.995 0 0 0 3.995 3.994l2.377-.08a5.492 5.492 0 0 0-4.373-6.411h-.002zm35.887-13.16c.345.04.694.04 1.039 0h.998V37.47a3.995 3.995 0 0 0-3.994-3.995v.04H61.24a5.472 5.472 0 0 0 4.354 6.391zm2.116 13.126a5.48 5.48 0 0 0-3.727.601 5.593 5.593 0 0 0-2.756 4.903l-.004.92h2.492a3.994 3.994 0 0 0 3.994-3.992v-2.43l.001-.002zM52.192 28.027h-9.466a.999.999 0 0 0-.996.996l-.04 13.46h1.995V29.69c2.481.387 5.008.388 7.49.004v12.807h1.996l.02-13.48a.998.998 0 0 0-.998-.998v.003z"/><path id="n" class="x" d="M57.664 34.036h1.498v22.887h-1.498V34.036zm-20.95 0h1.499v22.887h-1.498V34.036z"/><path id="o" class="z" d="M57.764 42.224a6.111 6.111 0 1 1-.003 12.223 6.111 6.111 0 0 1 .003-12.223"/><path id="q" d="M57.079 50.97a2.73 2.73 0 0 1 0-5.265.556.556 0 0 0-.3-1.07 3.829 3.829 0 0 0 0 7.382.366.366 0 0 0 .15.022.566.566 0 0 0 .556-.557.545.545 0 0 0-.406-.513z" fill="url(#p)"/><path id="s" d="M58.854 44.636a.366.366 0 0 0-.15-.021.566.566 0 0 0-.556.556c0 .25.166.468.406.534a2.73 2.73 0 0 1 0 5.264.55.55 0 0 0-.388.674l.003.01c.09.28.376.446.663.386a3.881 3.881 0 0 0 .022-7.401v-.002z" fill="url(#r)"/><path id="t" class="z" d="M39.478 20.297a2.73 2.73 0 0 1 3.721-3.722.555.555 0 0 0 .558-.96l-.013-.008a3.829 3.829 0 0 0-5.22 5.22.566.566 0 0 0 .878.119.547.547 0 0 0 .075-.652v.003zm5.734-3.223a.566.566 0 0 0-.878-.119.552.552 0 0 0-.09.666 2.73 2.73 0 0 1-3.721 3.722.55.55 0 0 0-.75.201l-.006.01a.572.572 0 0 0 .196.742 3.882 3.882 0 0 0 5.25-5.22v-.002z"/></svg>